<svg id="svg" version="1.1" xmlns="http://www.w3.org/2000/svg" xmlns:xlink="http://www.w3.org/1999/xlink" width="400" height="58.6800432772696" viewBox="0, 0, 400,58.6800432772696"><g id="svgg"><path id="path1" d="M194.111 17.111 C 194.050 17.172,194.000 18.260,194.000 19.528 L 194.000 21.833 199.667 21.833 L 205.333 21.833 205.333 39.917 L 205.333 58.000 207.917 58.000 L 210.500 58.000 210.500 39.919 L 210.500 21.838 216.125 21.794 L 221.750 21.750 221.797 19.513 C 221.832 17.835,221.790 17.242,221.630 17.141 C 221.376 16.979,194.272 16.950,194.111 17.111 M240.778 17.111 C 240.717 17.172,240.667 26.397,240.667 37.611 L 240.667 58.000 243.000 58.000 L 245.333 58.000 245.341 41.625 L 245.348 25.250 246.429 28.583 C 247.024 30.417,247.700 32.629,247.930 33.500 C 248.161 34.371,248.909 36.815,249.592 38.931 C 250.275 41.048,250.833 42.881,250.833 43.006 C 250.833 43.131,251.462 45.225,252.231 47.658 C 253.000 50.092,253.679 52.308,253.739 52.583 C 253.800 52.858,254.198 54.190,254.624 55.542 L 255.398 58.000 258.007 58.000 L 260.615 58.000 261.081 56.458 C 261.338 55.610,261.751 54.129,261.999 53.167 C 262.248 52.204,262.976 49.654,263.619 47.500 C 264.261 45.346,264.901 43.133,265.041 42.583 C 265.181 42.033,265.829 39.828,266.481 37.683 C 267.133 35.538,267.667 33.693,267.667 33.583 C 267.667 33.472,268.220 31.552,268.897 29.316 C 269.574 27.080,270.166 25.100,270.211 24.917 C 270.257 24.733,270.303 32.102,270.314 41.292 L 270.333 58.000 272.750 58.000 L 275.167 58.000 275.167 37.587 L 275.167 17.173 274.792 17.081 C 274.585 17.030,273.029 17.010,271.333 17.036 L 268.250 17.083 268.052 17.750 C 267.943 18.117,267.355 20.029,266.744 22.000 C 265.717 25.317,265.404 26.378,264.726 28.833 C 264.586 29.337,264.030 31.137,263.490 32.833 C 262.949 34.529,262.365 36.479,262.192 37.167 C 262.019 37.854,261.309 40.254,260.614 42.500 C 259.920 44.746,259.069 47.540,258.724 48.709 C 258.379 49.877,258.050 50.740,257.993 50.625 C 257.936 50.510,257.531 49.254,257.094 47.833 C 255.964 44.168,253.705 36.988,252.085 31.917 C 251.324 29.533,250.653 27.358,250.593 27.083 C 250.534 26.808,249.895 24.783,249.173 22.583 C 248.451 20.383,247.808 18.321,247.744 18.000 C 247.543 16.989,247.583 17.000,244.091 17.000 C 242.330 17.000,240.839 17.050,240.778 17.111 M316.542 17.108 C 316.377 17.176,316.333 21.432,316.333 37.597 L 316.333 58.000 318.750 58.000 L 321.167 58.000 321.167 56.475 L 321.167 54.951 321.546 55.517 C 323.762 58.822,331.241 59.887,335.082 57.445 C 339.428 54.682,341.373 50.491,341.399 43.833 C 341.423 37.858,339.406 32.881,336.188 30.978 C 335.855 30.781,335.321 30.447,335.000 30.237 C 332.217 28.408,326.705 28.429,323.956 30.280 C 323.503 30.584,323.077 30.833,323.007 30.833 C 322.938 30.833,322.497 31.241,322.026 31.738 L 321.170 32.643 321.127 24.863 L 321.083 17.083 318.917 17.052 C 317.725 17.035,316.656 17.060,316.542 17.108 M349.111 17.111 C 349.050 17.172,349.000 18.674,349.000 20.449 L 349.000 23.675 351.542 23.629 L 354.083 23.583 354.129 20.429 C 354.164 18.017,354.124 17.243,353.962 17.140 C 353.708 16.978,349.270 16.952,349.111 17.111 M363.611 17.111 C 363.550 17.172,363.500 26.399,363.500 37.616 L 363.500 58.009 365.958 57.963 L 368.417 57.917 368.459 37.685 C 368.490 22.872,368.451 17.392,368.314 17.226 C 368.115 16.987,363.840 16.882,363.611 17.111 M114.089 21.371 C 112.648 25.755,110.651 31.864,108.570 38.250 C 105.677 47.127,104.239 51.508,103.134 54.806 C 102.509 56.670,102.041 58.264,102.092 58.348 C 102.144 58.432,103.376 58.500,104.830 58.500 L 107.474 58.500 107.643 57.958 C 107.736 57.660,108.267 56.002,108.823 54.272 C 109.379 52.543,109.833 51.026,109.833 50.902 C 109.833 50.778,110.175 49.624,110.593 48.338 L 111.353 46.000 118.062 46.000 L 124.770 46.000 125.861 49.458 C 126.460 51.360,127.150 53.635,127.394 54.514 C 127.637 55.392,128.011 56.629,128.225 57.264 L 128.614 58.417 131.474 58.462 C 133.046 58.487,134.334 58.450,134.334 58.379 C 134.334 58.308,133.884 56.900,133.334 55.250 C 132.784 53.600,131.691 50.262,130.905 47.833 C 130.119 45.404,128.948 41.842,128.302 39.917 C 127.656 37.992,127.052 36.117,126.960 35.750 C 126.796 35.098,125.502 31.120,122.514 22.083 L 121.026 17.583 118.195 17.538 L 115.364 17.492 114.089 21.371 M140.541 37.958 L 140.583 58.417 143.208 58.463 L 145.833 58.508 145.833 38.004 L 145.833 17.500 143.166 17.500 L 140.499 17.500 140.541 37.958 M172.667 23.259 C 157.479 26.519,155.338 49.966,169.972 52.766 C 175.043 53.736,183.952 51.779,183.325 49.833 C 183.222 49.512,183.108 49.155,183.073 49.038 C 183.027 48.891,182.558 49.052,181.529 49.569 C 177.330 51.678,170.759 51.888,167.253 50.024 C 161.894 47.176,160.248 38.662,163.758 31.949 C 164.189 31.125,166.622 28.000,166.832 28.000 C 166.897 28.000,167.454 27.619,168.069 27.153 C 173.662 22.919,182.624 24.290,185.576 29.831 C 186.892 32.300,186.778 37.088,185.346 39.498 C 183.408 42.760,180.206 44.414,179.258 42.642 L 178.932 42.034 179.623 38.392 C 180.407 34.256,180.745 32.185,180.649 32.103 C 180.613 32.072,180.233 32.001,179.804 31.945 L 179.026 31.843 178.846 32.680 C 178.747 33.140,178.667 33.625,178.667 33.758 C 178.667 34.196,178.426 34.009,177.768 33.061 C 176.251 30.877,173.222 30.858,170.769 33.018 C 168.016 35.441,167.483 41.659,169.828 43.991 C 171.609 45.763,174.973 45.582,176.784 43.617 L 177.480 42.863 177.585 43.340 C 178.038 45.402,181.472 45.601,183.959 43.709 C 188.533 40.229,189.791 31.900,186.333 27.977 C 186.061 27.669,185.837 27.330,185.836 27.224 C 185.833 27.011,184.346 25.624,183.766 25.293 C 180.004 23.146,176.331 22.473,172.667 23.259 M118.493 25.041 C 118.596 25.522,119.266 27.791,119.980 30.083 C 120.695 32.375,121.517 35.075,121.805 36.083 C 122.094 37.092,122.587 38.723,122.900 39.708 L 123.470 41.500 118.050 41.500 C 113.785 41.500,112.647 41.456,112.708 41.292 C 112.935 40.678,115.013 34.103,115.250 33.250 C 115.879 30.990,118.089 24.167,118.194 24.167 C 118.255 24.167,118.390 24.560,118.493 25.041 M293.873 29.008 C 292.627 29.230,291.042 29.786,290.167 30.308 C 289.754 30.554,289.199 30.866,288.932 31.002 C 287.479 31.745,285.127 35.019,284.422 37.280 C 281.804 45.675,284.211 54.126,290.167 57.456 C 293.786 59.479,301.349 59.077,303.918 56.723 C 304.103 56.555,304.603 56.136,305.029 55.792 C 309.512 52.183,310.765 41.706,307.480 35.310 C 305.046 30.572,299.501 28.004,293.873 29.008 M385.250 29.091 C 376.756 30.740,372.644 42.929,377.379 52.417 C 377.985 53.630,379.404 55.663,379.650 55.669 C 379.705 55.670,380.087 55.977,380.500 56.350 C 383.588 59.142,391.037 59.642,395.016 57.323 C 396.994 56.170,398.800 53.987,399.669 51.700 C 400.078 50.623,400.183 50.667,397.180 50.667 L 394.583 50.667 394.181 51.424 C 392.244 55.075,387.205 56.004,383.831 53.332 C 382.219 52.055,380.667 48.380,380.667 45.840 L 380.667 45.167 390.333 45.167 L 400.000 45.167 400.000 42.923 C 400.000 39.475,399.158 35.949,397.908 34.167 C 397.683 33.846,397.320 33.321,397.100 33.000 C 394.967 29.876,389.869 28.194,385.250 29.091 M349.000 43.833 L 349.000 58.000 351.417 58.000 L 353.833 58.000 353.833 43.833 L 353.833 29.667 351.417 29.667 L 349.000 29.667 349.000 43.833 M298.917 33.270 C 304.403 35.128,306.315 45.535,302.302 51.692 C 299.201 56.450,292.151 55.779,289.677 50.491 C 287.479 45.793,288.088 38.487,290.940 35.329 C 292.956 33.098,296.051 32.299,298.917 33.270 M331.459 33.302 C 338.149 35.672,338.344 51.106,331.724 54.258 C 326.955 56.529,322.149 52.836,321.326 46.269 C 320.202 37.294,325.085 31.045,331.459 33.302 M390.417 33.266 C 392.845 34.103,394.831 37.525,394.833 40.875 L 394.833 41.333 387.773 41.333 L 380.712 41.333 380.864 40.458 C 381.877 34.620,385.792 31.673,390.417 33.266 M175.517 33.356 C 179.730 34.768,177.074 44.328,172.674 43.585 C 170.272 43.179,169.318 39.191,170.862 36.012 C 171.957 33.761,173.720 32.755,175.517 33.356 M222.667 42.752 L 222.667 45.337 228.708 45.294 L 234.750 45.250 234.796 42.708 L 234.842 40.167 228.754 40.167 L 222.667 40.167 222.667 42.752 " stroke="none" fill="#040404" fill-rule="evenodd"></path><path id="path0" d="M25.000 0.117 C 22.851 0.286,19.350 1.314,17.116 2.432 C 16.492 2.745,15.888 3.000,15.773 3.000 C 15.659 3.000,14.896 3.425,14.078 3.944 C 8.588 7.427,4.926 11.562,2.444 17.083 C 0.363 21.714,0.097 23.083,0.097 29.167 C 0.097 35.691,0.664 38.068,3.539 43.583 C 6.867 49.967,13.557 55.192,21.248 57.413 C 26.941 59.057,35.547 58.794,39.371 56.858 C 40.467 56.303,40.688 56.242,40.858 56.446 C 42.275 58.153,44.237 58.513,51.868 58.460 L 58.250 58.417 58.293 41.000 C 58.330 25.894,58.302 23.384,58.078 22.083 C 56.959 15.583,52.449 9.230,45.852 4.860 C 44.442 3.926,43.092 3.116,42.852 3.061 C 42.613 3.006,42.267 2.869,42.083 2.757 C 38.606 0.636,31.796 -0.417,25.000 0.117 M70.088 0.168 C 67.050 0.547,63.506 3.268,62.148 6.265 C 61.065 8.653,61.000 9.216,61.000 16.193 L 61.000 22.500 66.875 22.495 C 75.818 22.489,76.666 22.323,79.522 20.025 C 81.000 18.836,81.456 18.228,82.506 16.047 C 83.907 13.136,83.770 8.635,82.199 6.000 C 81.953 5.587,81.649 5.044,81.523 4.793 C 79.928 1.620,74.863 -0.428,70.088 0.168 M69.208 10.462 C 69.718 10.909,69.590 11.784,68.959 12.167 C 68.345 12.541,67.890 12.472,67.462 11.941 C 66.536 10.792,68.088 9.479,69.208 10.462 M72.719 10.192 C 73.984 10.857,73.226 12.831,71.899 12.327 C 70.903 11.948,70.728 11.092,71.513 10.431 C 72.091 9.945,72.207 9.922,72.719 10.192 M76.892 10.409 C 77.588 11.053,77.456 11.894,76.603 12.253 C 75.262 12.817,74.349 10.954,75.627 10.261 C 76.251 9.922,76.384 9.938,76.892 10.409 M31.583 18.023 C 35.585 18.880,39.002 22.162,40.080 26.184 C 40.494 27.730,40.499 27.833,40.500 34.219 L 40.500 40.687 33.792 40.629 L 27.083 40.571 25.917 40.141 C 23.875 39.389,23.597 39.266,22.917 38.809 C 22.154 38.298,19.667 35.903,19.667 35.680 C 19.667 35.599,19.406 35.071,19.087 34.507 C 14.401 26.217,22.145 16.003,31.583 18.023 M61.000 41.585 L 61.000 58.502 72.208 58.460 L 83.417 58.417 83.459 41.542 L 83.502 24.667 72.251 24.667 L 61.000 24.667 61.000 41.585 M24.672 27.930 C 23.114 28.606,23.642 30.667,25.374 30.667 C 27.040 30.667,27.488 28.563,25.958 27.923 C 25.236 27.622,25.386 27.621,24.672 27.930 M28.549 27.938 C 27.127 28.639,27.676 30.667,29.287 30.667 C 30.986 30.667,31.462 28.552,29.909 27.903 C 29.215 27.613,29.207 27.613,28.549 27.938 M32.833 27.775 C 30.995 28.381,31.222 30.667,33.120 30.667 C 34.837 30.667,35.311 28.558,33.742 27.903 C 33.431 27.773,33.156 27.673,33.130 27.680 C 33.104 27.687,32.971 27.730,32.833 27.775 " stroke="none" fill="#e40474" fill-rule="evenodd"></path><path id="path1" d="M194.111 17.111 C 194.050 17.172,194.000 18.260,194.000 19.528 L 194.000 21.833 199.667 21.833 L 205.333 21.833 205.333 39.917 L 205.333 58.000 207.917 58.000 L 210.500 58.000 210.500 39.919 L 210.500 21.838 216.125 21.794 L 221.750 21.750 221.797 19.513 C 221.832 17.835,221.790 17.242,221.630 17.141 C 221.376 16.979,194.272 16.950,194.111 17.111 M240.778 17.111 C 240.717 17.172,240.667 26.397,240.667 37.611 L 240.667 58.000 243.000 58.000 L 245.333 58.000 245.341 41.625 L 245.348 25.250 246.429 28.583 C 247.024 30.417,247.700 32.629,247.930 33.500 C 248.161 34.371,248.909 36.815,249.592 38.931 C 250.275 41.048,250.833 42.881,250.833 43.006 C 250.833 43.131,251.462 45.225,252.231 47.658 C 253.000 50.092,253.679 52.308,253.739 52.583 C 253.800 52.858,254.198 54.190,254.624 55.542 L 255.398 58.000 258.007 58.000 L 260.615 58.000 261.081 56.458 C 261.338 55.610,261.751 54.129,261.999 53.167 C 262.248 52.204,262.976 49.654,263.619 47.500 C 264.261 45.346,264.901 43.133,265.041 42.583 C 265.181 42.033,265.829 39.828,266.481 37.683 C 267.133 35.538,267.667 33.693,267.667 33.583 C 267.667 33.472,268.220 31.552,268.897 29.316 C 269.574 27.080,270.166 25.100,270.211 24.917 C 270.257 24.733,270.303 32.102,270.314 41.292 L 270.333 58.000 272.750 58.000 L 275.167 58.000 275.167 37.587 L 275.167 17.173 274.792 17.081 C 274.585 17.030,273.029 17.010,271.333 17.036 L 268.250 17.083 268.052 17.750 C 267.943 18.117,267.355 20.029,266.744 22.000 C 265.717 25.317,265.404 26.378,264.726 28.833 C 264.586 29.337,264.030 31.137,263.490 32.833 C 262.949 34.529,262.365 36.479,262.192 37.167 C 262.019 37.854,261.309 40.254,260.614 42.500 C 259.920 44.746,259.069 47.540,258.724 48.709 C 258.379 49.877,258.050 50.740,257.993 50.625 C 257.936 50.510,257.531 49.254,257.094 47.833 C 255.964 44.168,253.705 36.988,252.085 31.917 C 251.324 29.533,250.653 27.358,250.593 27.083 C 250.534 26.808,249.895 24.783,249.173 22.583 C 248.451 20.383,247.808 18.321,247.744 18.000 C 247.543 16.989,247.583 17.000,244.091 17.000 C 242.330 17.000,240.839 17.050,240.778 17.111 M316.542 17.108 C 316.377 17.176,316.333 21.432,316.333 37.597 L 316.333 58.000 318.750 58.000 L 321.167 58.000 321.167 56.475 L 321.167 54.951 321.546 55.517 C 323.762 58.822,331.241 59.887,335.082 57.445 C 339.428 54.682,341.373 50.491,341.399 43.833 C 341.423 37.858,339.406 32.881,336.188 30.978 C 335.855 30.781,335.321 30.447,335.000 30.237 C 332.217 28.408,326.705 28.429,323.956 30.280 C 323.503 30.584,323.077 30.833,323.007 30.833 C 322.938 30.833,322.497 31.241,322.026 31.738 L 321.170 32.643 321.127 24.863 L 321.083 17.083 318.917 17.052 C 317.725 17.035,316.656 17.060,316.542 17.108 M349.111 17.111 C 349.050 17.172,349.000 18.674,349.000 20.449 L 349.000 23.675 351.542 23.629 L 354.083 23.583 354.129 20.429 C 354.164 18.017,354.124 17.243,353.962 17.140 C 353.708 16.978,349.270 16.952,349.111 17.111 M363.611 17.111 C 363.550 17.172,363.500 26.399,363.500 37.616 L 363.500 58.009 365.958 57.963 L 368.417 57.917 368.459 37.685 C 368.490 22.872,368.451 17.392,368.314 17.226 C 368.115 16.987,363.840 16.882,363.611 17.111 M114.089 21.371 C 112.648 25.755,110.651 31.864,108.570 38.250 C 105.677 47.127,104.239 51.508,103.134 54.806 C 102.509 56.670,102.041 58.264,102.092 58.348 C 102.144 58.432,103.376 58.500,104.830 58.500 L 107.474 58.500 107.643 57.958 C 107.736 57.660,108.267 56.002,108.823 54.272 C 109.379 52.543,109.833 51.026,109.833 50.902 C 109.833 50.778,110.175 49.624,110.593 48.338 L 111.353 46.000 118.062 46.000 L 124.770 46.000 125.861 49.458 C 126.460 51.360,127.150 53.635,127.394 54.514 C 127.637 55.392,128.011 56.629,128.225 57.264 L 128.614 58.417 131.474 58.462 C 133.046 58.487,134.334 58.450,134.334 58.379 C 134.334 58.308,133.884 56.900,133.334 55.250 C 132.784 53.600,131.691 50.262,130.905 47.833 C 130.119 45.404,128.948 41.842,128.302 39.917 C 127.656 37.992,127.052 36.117,126.960 35.750 C 126.796 35.098,125.502 31.120,122.514 22.083 L 121.026 17.583 118.195 17.538 L 115.364 17.492 114.089 21.371 M140.541 37.958 L 140.583 58.417 143.208 58.463 L 145.833 58.508 145.833 38.004 L 145.833 17.500 143.166 17.500 L 140.499 17.500 140.541 37.958 M172.667 23.259 C 157.479 26.519,155.338 49.966,169.972 52.766 C 175.043 53.736,183.952 51.779,183.325 49.833 C 183.222 49.512,183.108 49.155,183.073 49.038 C 183.027 48.891,182.558 49.052,181.529 49.569 C 177.330 51.678,170.759 51.888,167.253 50.024 C 161.894 47.176,160.248 38.662,163.758 31.949 C 164.189 31.125,166.622 28.000,166.832 28.000 C 166.897 28.000,167.454 27.619,168.069 27.153 C 173.662 22.919,182.624 24.290,185.576 29.831 C 186.892 32.300,186.778 37.088,185.346 39.498 C 183.408 42.760,180.206 44.414,179.258 42.642 L 178.932 42.034 179.623 38.392 C 180.407 34.256,180.745 32.185,180.649 32.103 C 180.613 32.072,180.233 32.001,179.804 31.945 L 179.026 31.843 178.846 32.680 C 178.747 33.140,178.667 33.625,178.667 33.758 C 178.667 34.196,178.426 34.009,177.768 33.061 C 176.251 30.877,173.222 30.858,170.769 33.018 C 168.016 35.441,167.483 41.659,169.828 43.991 C 171.609 45.763,174.973 45.582,176.784 43.617 L 177.480 42.863 177.585 43.340 C 178.038 45.402,181.472 45.601,183.959 43.709 C 188.533 40.229,189.791 31.900,186.333 27.977 C 186.061 27.669,185.837 27.330,185.836 27.224 C 185.833 27.011,184.346 25.624,183.766 25.293 C 180.004 23.146,176.331 22.473,172.667 23.259 M118.493 25.041 C 118.596 25.522,119.266 27.791,119.980 30.083 C 120.695 32.375,121.517 35.075,121.805 36.083 C 122.094 37.092,122.587 38.723,122.900 39.708 L 123.470 41.500 118.050 41.500 C 113.785 41.500,112.647 41.456,112.708 41.292 C 112.935 40.678,115.013 34.103,115.250 33.250 C 115.879 30.990,118.089 24.167,118.194 24.167 C 118.255 24.167,118.390 24.560,118.493 25.041 M293.873 29.008 C 292.627 29.230,291.042 29.786,290.167 30.308 C 289.754 30.554,289.199 30.866,288.932 31.002 C 287.479 31.745,285.127 35.019,284.422 37.280 C 281.804 45.675,284.211 54.126,290.167 57.456 C 293.786 59.479,301.349 59.077,303.918 56.723 C 304.103 56.555,304.603 56.136,305.029 55.792 C 309.512 52.183,310.765 41.706,307.480 35.310 C 305.046 30.572,299.501 28.004,293.873 29.008 M385.250 29.091 C 376.756 30.740,372.644 42.929,377.379 52.417 C 377.985 53.630,379.404 55.663,379.650 55.669 C 379.705 55.670,380.087 55.977,380.500 56.350 C 383.588 59.142,391.037 59.642,395.016 57.323 C 396.994 56.170,398.800 53.987,399.669 51.700 C 400.078 50.623,400.183 50.667,397.180 50.667 L 394.583 50.667 394.181 51.424 C 392.244 55.075,387.205 56.004,383.831 53.332 C 382.219 52.055,380.667 48.380,380.667 45.840 L 380.667 45.167 390.333 45.167 L 400.000 45.167 400.000 42.923 C 400.000 39.475,399.158 35.949,397.908 34.167 C 397.683 33.846,397.320 33.321,397.100 33.000 C 394.967 29.876,389.869 28.194,385.250 29.091 M349.000 43.833 L 349.000 58.000 351.417 58.000 L 353.833 58.000 353.833 43.833 L 353.833 29.667 351.417 29.667 L 349.000 29.667 349.000 43.833 M298.917 33.270 C 304.403 35.128,306.315 45.535,302.302 51.692 C 299.201 56.450,292.151 55.779,289.677 50.491 C 287.479 45.793,288.088 38.487,290.940 35.329 C 292.956 33.098,296.051 32.299,298.917 33.270 M331.459 33.302 C 338.149 35.672,338.344 51.106,331.724 54.258 C 326.955 56.529,322.149 52.836,321.326 46.269 C 320.202 37.294,325.085 31.045,331.459 33.302 M390.417 33.266 C 392.845 34.103,394.831 37.525,394.833 40.875 L 394.833 41.333 387.773 41.333 L 380.712 41.333 380.864 40.458 C 381.877 34.620,385.792 31.673,390.417 33.266 M175.517 33.356 C 179.730 34.768,177.074 44.328,172.674 43.585 C 170.272 43.179,169.318 39.191,170.862 36.012 C 171.957 33.761,173.720 32.755,175.517 33.356 M222.667 42.752 L 222.667 45.337 228.708 45.294 L 234.750 45.250 234.796 42.708 L 234.842 40.167 228.754 40.167 L 222.667 40.167 222.667 42.752 " stroke="none" fill="#040404" fill-rule="evenodd"></path></g></svg>