<svg id="svg" version="1.1" xmlns="http://www.w3.org/2000/svg" xmlns:xlink="http://www.w3.org/1999/xlink" width="400" height="461.50870406189557" viewBox="0, 0, 400,461.50870406189557"><g id="svgg"><path id="path0" d="M99.727 57.540 L 0.034 115.087 0.034 230.561 L 0.034 346.035 99.727 403.549 C 154.558 435.182,199.600 461.120,199.820 461.189 C 200.041 461.259,245.167 435.377,300.101 403.675 L 399.981 346.035 399.980 230.561 L 399.980 115.087 300.485 57.667 C 245.762 26.086,200.636 0.190,200.204 0.120 C 199.711 0.040,162.448 21.334,99.727 57.540 M287.242 79.649 L 374.275 129.898 374.275 230.561 L 374.275 331.224 294.584 377.237 C 250.754 402.544,211.548 425.177,207.459 427.532 L 200.023 431.813 112.978 381.574 L 25.932 331.335 25.932 230.561 L 25.933 129.787 112.870 79.601 C 160.685 51.999,199.897 29.412,200.008 29.408 C 200.118 29.404,239.374 52.012,287.242 79.649 M223.598 91.122 C 219.368 92.289,215.517 94.453,212.186 97.533 L 211.025 98.606 179.691 98.756 C 145.560 98.920,146.777 98.846,139.289 101.227 C 125.106 105.737,113.212 117.537,108.358 131.913 L 107.248 135.199 105.558 135.519 C 88.676 138.713,77.833 151.066,74.443 170.968 L 73.820 174.625 68.594 182.556 C 63.114 190.874,62.570 192.134,63.599 194.126 C 65.365 197.541,68.888 196.955,71.598 192.796 C 73.448 189.956,73.759 190.061,73.849 193.559 C 73.965 198.018,78.130 200.294,80.973 197.451 C 82.192 196.233,82.348 195.329,81.935 191.872 C 81.473 188.009,81.407 188.027,85.307 190.978 C 89.578 194.209,91.333 194.513,93.262 192.354 C 95.793 189.521,94.957 188.053,87.718 182.612 C 81.151 177.677,81.494 178.412,82.634 171.732 C 85.047 157.582,91.865 148.411,102.759 144.663 C 105.955 143.564,105.796 143.365,105.861 148.537 C 106.086 166.224,116.119 182.417,131.997 190.721 C 134.079 191.810,135.783 192.947,135.783 193.249 C 135.783 194.130,152.749 236.770,153.861 238.685 C 156.128 242.587,162.157 247.052,166.178 247.806 C 167.812 248.113,167.817 248.047,165.957 250.847 C 153.148 270.126,167.169 296.891,190.733 298.144 C 215.335 299.453,231.824 271.620,218.583 251.133 L 217.076 248.801 219.660 248.014 C 223.876 246.730,227.988 243.717,230.546 240.039 C 231.476 238.700,249.399 201.469,250.958 197.636 C 251.520 196.254,251.556 196.236,254.293 195.995 C 255.815 195.862,258.410 195.426,260.060 195.027 L 263.060 194.303 264.639 197.163 C 281.849 228.339,323.919 227.832,334.169 196.325 C 337.160 187.132,337.196 172.807,334.234 170.116 L 333.063 169.052 326.712 169.052 C 317.478 169.052,317.456 169.068,316.854 176.403 C 315.795 189.318,311.484 195.226,302.796 195.668 C 294.020 196.114,290.223 191.441,289.499 179.304 L 289.268 175.435 291.041 172.452 C 309.745 140.964,288.625 101.452,251.675 98.805 C 247.857 98.532,247.830 98.523,246.159 96.944 C 240.576 91.670,230.774 89.140,223.598 91.122 M234.510 99.413 C 243.174 102.089,248.078 111.779,245.074 120.290 C 243.940 123.505,234.736 138.921,232.788 140.869 C 221.151 152.506,200.425 139.975,205.693 124.488 C 206.582 121.875,215.508 106.177,217.302 104.072 C 221.204 99.491,228.430 97.535,234.510 99.413 M205.416 107.394 C 205.416 107.524,203.949 110.179,202.156 113.293 C 197.585 121.232,197.118 122.708,197.124 129.207 C 197.139 147.667,215.743 159.232,232.302 151.076 C 238.196 148.173,240.158 145.882,247.063 133.843 C 253.933 121.864,255.257 117.075,253.620 110.131 C 253.278 108.681,252.998 107.403,252.998 107.290 C 252.998 106.916,257.006 107.618,260.310 108.571 C 286.873 116.231,298.201 147.492,282.695 170.344 L 281.162 172.604 281.207 176.727 C 281.406 194.774,288.443 204.024,301.934 203.975 C 314.574 203.929,323.447 194.557,324.819 179.803 L 325.063 177.176 326.555 177.176 L 328.046 177.176 328.046 182.028 C 328.046 200.888,317.133 212.583,300.193 211.877 C 282.085 211.121,267.509 194.693,265.780 173.092 C 265.381 168.106,264.693 166.791,262.171 166.192 C 257.347 165.045,256.175 171.026,259.010 182.317 C 259.533 184.400,259.961 186.254,259.961 186.436 C 259.961 186.936,253.549 188.009,250.568 188.009 C 246.361 188.007,244.101 189.566,244.101 192.468 C 244.101 193.013,228.929 225.345,225.137 232.882 C 218.888 245.301,201.758 242.038,201.778 228.433 L 201.782 225.338 209.402 209.332 C 217.701 191.896,217.799 191.598,215.892 189.465 L 214.764 188.201 193.810 188.201 L 172.857 188.201 171.728 189.465 C 169.925 191.483,170.076 192.058,176.854 208.964 L 183.109 224.565 183.138 228.046 C 183.234 239.669,168.595 244.721,161.557 235.494 C 160.386 233.959,144.135 193.182,143.364 189.846 C 142.880 187.751,141.561 185.687,140.705 185.687 C 140.508 185.687,138.928 185.014,137.194 184.191 C 112.400 172.428,106.239 139.795,125.021 119.717 C 130.553 113.803,138.586 109.325,146.473 107.757 C 149.225 107.210,205.416 106.864,205.416 107.394 M258.215 136.456 C 253.640 138.093,249.130 141.986,249.130 144.297 C 249.130 148.667,252.890 149.794,256.865 146.616 C 261.345 143.035,263.799 143.118,267.867 146.985 C 270.569 149.554,271.798 150.003,273.679 149.111 C 282.054 145.137,267.420 133.161,258.215 136.456 M206.467 196.422 C 204.263 200.544,194.442 222.121,194.016 223.776 C 193.247 226.767,193.297 230.485,194.149 233.752 L 194.830 236.364 192.386 236.364 C 191.042 236.364,189.944 236.320,189.947 236.267 C 189.950 236.214,190.298 235.067,190.721 233.718 C 192.595 227.738,192.125 225.497,185.474 208.694 C 182.825 202.002,180.658 196.437,180.658 196.329 C 180.658 196.220,186.500 196.132,193.640 196.132 C 200.780 196.132,206.552 196.262,206.467 196.422 " stroke="none" fill="#04040c" fill-rule="evenodd"></path><path id="path1" d="M225.725 99.192 C 220.700 100.439,217.808 102.897,214.228 108.961 C 205.525 123.705,204.726 125.598,205.175 130.426 C 206.471 144.373,223.279 150.496,232.948 140.544 C 234.568 138.877,241.256 127.876,244.241 121.967 C 250.275 110.025,238.825 95.941,225.725 99.192 M146.885 107.772 C 108.424 114.723,102.169 167.336,137.785 184.320 C 142.492 186.565,142.968 187.030,143.517 189.923 C 143.998 192.459,160.170 233.250,161.479 235.227 C 166.277 242.478,178.141 241.387,182.097 233.331 C 184.361 228.720,184.074 227.387,176.999 209.671 C 169.705 191.407,169.986 192.278,170.827 190.505 C 172.042 187.946,171.468 188.008,193.990 188.008 L 214.325 188.008 215.709 189.276 C 218.035 191.408,218.042 191.384,209.486 209.420 L 201.805 225.611 201.805 228.394 C 201.805 239.485,215.475 244.840,222.714 236.584 C 224.279 234.799,243.110 195.724,243.960 192.498 C 244.946 188.757,245.815 188.208,251.257 187.887 C 255.121 187.660,259.127 186.999,259.667 186.500 C 259.825 186.355,259.608 185.031,259.187 183.557 C 255.795 171.696,257.205 164.661,262.647 166.292 C 264.856 166.954,265.461 168.181,265.818 172.721 C 267.639 195.889,284.252 213.186,303.408 211.860 C 318.403 210.821,327.293 200.387,327.932 183.075 L 328.150 177.176 326.752 177.176 C 325.185 177.176,325.329 176.855,324.574 182.012 C 322.302 197.524,310.783 206.610,297.072 203.703 C 286.940 201.555,281.989 193.532,281.063 177.756 C 280.784 173.024,280.582 173.687,284.054 167.944 C 296.126 147.968,288.077 121.600,266.731 111.200 C 261.344 108.576,252.593 106.316,253.118 107.686 C 254.504 111.297,254.413 118.589,252.929 122.827 C 251.834 125.956,242.888 141.632,240.359 144.854 C 228.122 160.446,202.443 154.557,197.429 135.010 C 195.661 128.121,196.930 122.218,202.119 113.178 C 203.932 110.020,205.416 107.373,205.416 107.296 C 205.416 106.820,149.643 107.273,146.885 107.772 M268.194 137.048 C 271.854 138.725,276.209 143.293,276.209 145.455 C 276.209 149.935,271.762 150.813,267.891 147.096 C 263.902 143.267,261.055 143.152,257.048 146.658 C 251.498 151.516,245.816 145.924,251.087 140.790 C 256.151 135.857,262.544 134.459,268.194 137.048 M92.843 330.948 L 92.843 353.578 97.485 353.578 L 102.128 353.578 102.128 330.948 L 102.128 308.317 97.485 308.317 L 92.843 308.317 92.843 330.948 M196.518 316.637 L 196.518 324.956 194.990 323.849 C 187.759 318.612,177.289 323.473,175.286 332.998 C 172.238 347.488,184.601 359.415,194.997 352.013 L 196.132 351.205 196.132 352.391 L 196.132 353.578 201.161 353.578 L 206.190 353.578 206.190 330.948 L 206.190 308.317 201.354 308.317 L 196.518 308.317 196.518 316.637 M220.260 312.264 C 218.277 314.470,214.313 320.517,214.313 321.337 C 214.313 322.187,214.169 322.244,211.992 322.244 L 209.671 322.244 209.671 325.145 L 209.671 328.046 211.959 328.046 L 214.246 328.046 214.414 338.008 C 214.599 349.020,214.809 350.206,216.889 352.033 C 218.911 353.808,223.329 354.481,227.950 353.717 L 229.400 353.477 229.400 350.258 L 229.400 347.038 227.514 347.262 C 224.059 347.671,223.985 347.452,223.985 336.944 L 223.985 328.046 226.886 328.046 L 229.787 328.046 229.787 325.145 L 229.787 322.244 226.897 322.244 L 224.006 322.244 223.899 316.925 L 223.791 311.605 222.425 311.490 C 221.396 311.404,220.862 311.595,220.260 312.264 M301.498 312.264 C 299.515 314.470,295.551 320.517,295.551 321.337 C 295.551 322.187,295.407 322.244,293.230 322.244 L 290.909 322.244 290.909 325.145 L 290.909 328.046 293.197 328.046 L 295.484 328.046 295.652 338.008 C 295.837 349.020,296.047 350.206,298.127 352.033 C 300.149 353.808,304.567 354.481,309.188 353.717 L 310.638 353.477 310.638 350.258 L 310.638 347.038 308.752 347.262 C 305.297 347.671,305.222 347.452,305.222 336.944 L 305.222 328.046 308.124 328.046 L 311.025 328.046 311.025 325.145 L 311.025 322.244 308.135 322.244 L 305.244 322.244 305.137 316.925 L 305.029 311.605 303.663 311.490 C 302.634 311.404,302.100 311.595,301.498 312.264 M117.925 322.575 C 104.826 326.909,103.628 347.003,116.133 352.616 C 127.497 357.715,138.653 350.431,138.653 337.911 C 138.653 326.094,128.961 318.923,117.925 322.575 M150.870 322.385 C 146.391 323.691,143.133 327.129,143.133 330.549 L 143.133 331.528 147.717 331.528 L 152.300 331.528 152.897 330.009 C 154.584 325.715,160.928 327.373,160.928 332.108 L 160.928 334.132 156.190 334.340 C 145.010 334.834,139.199 341.051,142.705 348.770 C 145.318 354.523,157.122 355.940,161.714 351.051 L 162.598 350.111 164.243 351.627 C 166.089 353.329,167.731 353.797,170.644 353.452 C 173.297 353.138,173.308 353.123,173.308 349.687 L 173.308 346.615 172.198 346.615 C 170.736 346.615,170.612 345.823,170.595 336.364 C 170.578 326.575,169.886 325.054,164.513 322.998 C 161.724 321.930,153.669 321.568,150.870 322.385 M240.971 322.569 C 228.052 326.833,226.818 347.081,239.140 352.611 C 246.300 355.824,254.985 353.537,258.867 347.415 C 260.776 344.406,260.652 344.294,255.416 344.296 L 250.870 344.299 250.202 345.473 C 247.539 350.153,240.638 347.005,240.623 341.103 L 240.619 339.652 250.894 339.652 L 261.169 339.652 260.926 337.814 C 259.845 329.635,257.390 325.445,252.310 323.106 C 249.359 321.747,244.199 321.503,240.971 322.569 M269.914 322.588 C 265.613 324.009,263.443 326.730,263.443 330.702 C 263.443 335.081,265.757 337.180,273.308 339.652 C 279.251 341.598,280.851 342.665,280.851 344.686 C 280.851 348.600,274.124 348.674,272.475 344.778 L 271.943 343.520 267.500 343.520 C 262.517 343.520,262.668 343.404,263.705 346.446 C 267.457 357.459,290.067 356.081,290.127 344.835 C 290.153 339.870,287.281 337.322,278.674 334.674 C 274.402 333.360,273.277 332.657,272.900 331.064 C 272.141 327.852,277.800 327.029,279.220 330.145 C 279.859 331.547,288.588 331.740,288.588 330.352 C 288.588 324.404,277.887 319.955,269.914 322.588 M248.623 329.026 C 249.604 329.669,251.040 332.345,251.055 333.559 C 251.063 334.171,250.560 334.236,245.841 334.236 C 239.880 334.236,239.721 334.115,241.502 330.948 C 243.035 328.220,246.121 327.387,248.623 329.026 M124.692 328.961 C 130.133 331.234,130.488 344.101,125.182 346.679 C 120.582 348.914,116.824 344.981,116.830 337.938 C 116.835 331.134,120.333 327.140,124.692 328.961 M193.167 329.781 C 197.568 332.665,197.049 344.217,192.419 346.414 C 188.541 348.254,184.930 345.165,184.322 339.490 C 183.508 331.887,188.320 326.605,193.167 329.781 M160.856 341.161 C 160.399 347.489,151.257 350.104,151.257 343.907 C 151.257 340.868,154.233 339.115,159.718 338.924 L 161.021 338.878 160.856 341.161 " stroke="none" fill="#fbfafa" fill-rule="evenodd"></path><path id="path2" d="M112.870 79.601 L 25.933 129.787 25.932 230.561 L 25.932 331.335 112.978 381.574 L 200.023 431.813 207.459 427.532 C 211.548 425.177,250.754 402.544,294.584 377.237 L 374.275 331.224 374.275 230.561 L 374.275 129.898 287.242 79.649 C 239.374 52.012,200.118 29.404,200.008 29.408 C 199.897 29.412,160.685 51.999,112.870 79.601 M237.143 91.610 C 240.180 92.600,243.875 94.786,246.159 96.944 C 247.830 98.523,247.857 98.532,251.675 98.805 C 288.625 101.452,309.745 140.964,291.041 172.452 L 289.268 175.435 289.499 179.304 C 290.223 191.441,294.020 196.114,302.796 195.668 C 311.484 195.226,315.795 189.318,316.854 176.403 C 317.456 169.068,317.478 169.052,326.712 169.052 L 333.063 169.052 334.234 170.116 C 337.196 172.807,337.160 187.132,334.169 196.325 C 323.919 227.832,281.849 228.339,264.639 197.163 L 263.060 194.303 260.060 195.027 C 258.410 195.426,255.815 195.862,254.293 195.995 C 251.556 196.236,251.520 196.254,250.958 197.636 C 249.399 201.469,231.476 238.700,230.546 240.039 C 227.988 243.717,223.876 246.730,219.660 248.014 L 217.076 248.801 218.583 251.133 C 231.824 271.620,215.335 299.453,190.733 298.144 C 167.169 296.891,153.148 270.126,165.957 250.847 C 167.817 248.047,167.812 248.113,166.178 247.806 C 162.157 247.052,156.128 242.587,153.861 238.685 C 152.749 236.770,135.783 194.130,135.783 193.249 C 135.783 192.947,134.079 191.810,131.997 190.721 C 116.119 182.417,106.086 166.224,105.861 148.537 C 105.796 143.365,105.955 143.564,102.759 144.663 C 91.865 148.411,85.047 157.582,82.634 171.732 C 81.494 178.412,81.151 177.677,87.718 182.612 C 94.957 188.053,95.793 189.521,93.262 192.354 C 91.333 194.513,89.578 194.209,85.307 190.978 C 81.407 188.027,81.473 188.009,81.935 191.872 C 82.348 195.329,82.192 196.233,80.973 197.451 C 78.130 200.294,73.965 198.018,73.849 193.559 C 73.759 190.061,73.448 189.956,71.598 192.796 C 68.888 196.955,65.365 197.541,63.599 194.126 C 62.570 192.134,63.114 190.874,68.594 182.556 L 73.820 174.625 74.443 170.968 C 77.833 151.066,88.676 138.713,105.558 135.519 L 107.248 135.199 108.358 131.913 C 113.212 117.537,125.106 105.737,139.289 101.227 C 146.777 98.846,145.560 98.920,179.691 98.756 L 211.025 98.606 212.186 97.533 C 219.073 91.165,228.741 88.871,237.143 91.610 M276.596 117.723 C 276.596 117.789,277.162 118.355,277.853 118.980 L 279.110 120.116 277.974 118.859 C 276.915 117.687,276.596 117.424,276.596 117.723 M196.608 129.207 C 196.608 129.952,196.688 130.256,196.785 129.884 C 196.882 129.512,196.882 128.902,196.785 128.530 C 196.688 128.158,196.608 128.462,196.608 129.207 M220.413 153.859 C 221.108 153.945,222.153 153.943,222.734 153.855 C 223.315 153.766,222.747 153.696,221.470 153.698 C 220.193 153.700,219.718 153.773,220.413 153.859 M280.956 176.015 C 280.956 176.973,281.032 177.365,281.124 176.886 C 281.216 176.407,281.216 175.624,281.124 175.145 C 281.032 174.666,280.956 175.058,280.956 176.015 M180.658 196.329 C 180.658 196.437,182.825 202.002,185.474 208.694 C 192.125 225.497,192.595 227.738,190.721 233.718 C 190.298 235.067,189.950 236.214,189.947 236.267 C 189.944 236.320,191.042 236.364,192.386 236.364 L 194.830 236.364 194.149 233.752 C 193.297 230.485,193.247 226.767,194.016 223.776 C 194.442 222.121,204.263 200.544,206.467 196.422 C 206.552 196.262,200.780 196.132,193.640 196.132 C 186.500 196.132,180.658 196.220,180.658 196.329 M102.128 330.948 L 102.128 353.578 97.485 353.578 L 92.843 353.578 92.843 330.948 L 92.843 308.317 97.485 308.317 L 102.128 308.317 102.128 330.948 M206.190 330.948 L 206.190 353.578 201.161 353.578 L 196.132 353.578 196.132 352.391 L 196.132 351.205 194.997 352.013 C 184.601 359.415,172.238 347.488,175.286 332.998 C 177.289 323.473,187.759 318.612,194.990 323.849 L 196.518 324.956 196.518 316.637 L 196.518 308.317 201.354 308.317 L 206.190 308.317 206.190 330.948 M223.899 316.925 L 224.006 322.244 226.897 322.244 L 229.787 322.244 229.787 325.145 L 229.787 328.046 226.886 328.046 L 223.985 328.046 223.985 336.944 C 223.985 347.452,224.059 347.671,227.514 347.262 L 229.400 347.038 229.400 350.258 L 229.400 353.477 227.950 353.717 C 223.329 354.481,218.911 353.808,216.889 352.033 C 214.809 350.206,214.599 349.020,214.414 338.008 L 214.246 328.046 211.959 328.046 L 209.671 328.046 209.671 325.145 L 209.671 322.244 211.992 322.244 C 214.169 322.244,214.313 322.187,214.313 321.337 C 214.313 320.838,215.472 318.792,216.887 316.791 C 220.573 311.582,220.810 311.354,222.425 311.490 L 223.791 311.605 223.899 316.925 M305.137 316.925 L 305.244 322.244 308.135 322.244 L 311.025 322.244 311.025 325.145 L 311.025 328.046 308.124 328.046 L 305.222 328.046 305.222 336.944 C 305.222 347.452,305.297 347.671,308.752 347.262 L 310.638 347.038 310.638 350.258 L 310.638 353.477 309.188 353.717 C 304.567 354.481,300.149 353.808,298.127 352.033 C 296.047 350.206,295.837 349.020,295.652 338.008 L 295.484 328.046 293.197 328.046 L 290.909 328.046 290.909 325.145 L 290.909 322.244 293.230 322.244 C 295.407 322.244,295.551 322.187,295.551 321.337 C 295.551 320.838,296.710 318.792,298.125 316.791 C 301.810 311.582,302.048 311.354,303.663 311.490 L 305.029 311.605 305.137 316.925 M130.507 323.349 C 141.356 328.690,141.829 346.455,131.272 352.097 C 127.009 354.376,120.549 354.597,116.133 352.616 C 105.457 347.824,104.387 330.313,114.394 324.128 C 118.722 321.453,125.947 321.104,130.507 323.349 M164.513 322.998 C 169.886 325.054,170.578 326.575,170.595 336.364 C 170.612 345.823,170.736 346.615,172.198 346.615 L 173.308 346.615 173.308 349.687 C 173.308 353.123,173.297 353.138,170.644 353.452 C 167.731 353.797,166.089 353.329,164.243 351.627 L 162.598 350.111 161.714 351.051 C 157.122 355.940,145.318 354.523,142.705 348.770 C 139.199 341.051,145.010 334.834,156.190 334.340 L 160.928 334.132 160.928 332.108 C 160.928 327.373,154.584 325.715,152.897 330.009 L 152.300 331.528 147.717 331.528 L 143.133 331.528 143.133 330.549 C 143.133 323.673,155.170 319.422,164.513 322.998 M252.310 323.106 C 257.390 325.445,259.845 329.635,260.926 337.814 L 261.169 339.652 250.894 339.652 L 240.619 339.652 240.623 341.103 C 240.638 347.005,247.539 350.153,250.202 345.473 L 250.870 344.299 255.416 344.296 C 260.652 344.294,260.776 344.406,258.867 347.415 C 252.552 357.372,236.005 355.775,231.680 344.791 C 226.265 331.041,239.448 317.184,252.310 323.106 M282.403 323.075 C 285.656 324.564,288.588 328.013,288.588 330.352 C 288.588 331.740,279.859 331.547,279.220 330.145 C 277.800 327.029,272.141 327.852,272.900 331.064 C 273.277 332.657,274.402 333.360,278.674 334.674 C 287.281 337.322,290.153 339.870,290.127 344.835 C 290.067 356.081,267.457 357.459,263.705 346.446 C 262.668 343.404,262.517 343.520,267.500 343.520 L 271.943 343.520 272.475 344.778 C 274.124 348.674,280.851 348.600,280.851 344.686 C 280.851 342.665,279.251 341.598,273.308 339.652 C 264.296 336.702,261.470 332.752,264.256 326.997 C 266.543 322.274,276.129 320.202,282.403 323.075 M243.720 328.705 C 242.280 329.448,240.636 331.924,240.625 333.366 C 240.619 334.226,240.682 334.236,245.841 334.236 C 251.742 334.236,251.680 334.277,250.314 331.268 C 249.055 328.494,246.245 327.402,243.720 328.705 M120.704 329.111 C 114.667 332.144,115.731 346.035,122.093 347.229 C 125.996 347.961,128.481 344.841,128.741 338.878 C 129.081 331.112,125.466 326.719,120.704 329.111 M188.015 329.477 C 182.089 332.546,183.308 345.838,189.610 346.861 C 193.412 347.478,195.832 344.309,196.070 338.406 C 196.355 331.300,192.578 327.114,188.015 329.477 M156.636 339.270 C 153.088 339.870,151.257 341.449,151.257 343.907 C 151.257 350.104,160.399 347.489,160.856 341.161 L 161.021 338.878 159.718 338.924 C 159.001 338.949,157.614 339.105,156.636 339.270 " stroke="none" fill="#e30c73" fill-rule="evenodd"></path></g></svg>